<svg version="1.1" xmlns="http://www.w3.org/2000/svg" xmlns:xlink="http://www.w3.org/1999/xlink" width="976.11181640625" height="705"><defs/><g><g><rect fill="#C0C0C0" stroke="none" x="431" y="479" width="51.919921875" height="45" transform="matrix(1 0 0 1 -166 -102)" fill-opacity="0.2"/></g><g><rect fill="#ffffff" stroke="none" x="424" y="472" width="51.919921875" height="45" transform="matrix(1 0 0 1 -166 -102)"/></g><g><path fill="none" stroke="#000000" paint-order="fill stroke markers" d=" M 258 370 L 309.919921875 370 L 309.919921875 415 L 258 415 L 258 370 Z Z" stroke-miterlimit="10" stroke-dasharray=""/></g><g><path fill="none" stroke="#000000" paint-order="fill stroke markers" d=" M 258 395 L 309.919921875 395" stroke-miterlimit="10" stroke-dasharray=""/></g><g><path fill="none" stroke="#000000" paint-order="fill stroke markers" d=" M 258 405 L 309.919921875 405" stroke-miterlimit="10" stroke-dasharray=""/></g><g><g><path fill="none" stroke="none"/><text fill="#000000" stroke="none" font-family="Arial" font-size="13px" font-style="normal" font-weight="bold" text-decoration="undefined" x="450.4599609375" y="485.5" text-anchor="middle" dominant-baseline="central" transform="matrix(1 0 0 1 -166 -102)">Market</text></g></g><g><rect fill="#C0C0C0" stroke="none" x="703" y="479" width="87.30810546875" height="45" transform="matrix(1 0 0 1 -166 -102)" fill-opacity="0.2"/></g><g><rect fill="#ffffff" stroke="none" x="696" y="472" width="87.30810546875" height="45" transform="matrix(1 0 0 1 -166 -102)"/></g><g><path fill="none" stroke="#000000" paint-order="fill stroke markers" d=" M 530 370 L 617.30810546875 370 L 617.30810546875 415 L 530 415 L 530 370 Z Z" stroke-miterlimit="10" stroke-dasharray=""/></g><g><path fill="none" stroke="#000000" paint-order="fill stroke markers" d=" M 530 395 L 617.30810546875 395" stroke-miterlimit="10" stroke-dasharray=""/></g><g><path fill="none" stroke="#000000" paint-order="fill stroke markers" d=" M 530 405 L 617.30810546875 405" stroke-miterlimit="10" stroke-dasharray=""/></g><g><g><path fill="none" stroke="none"/><text fill="#000000" stroke="none" font-family="Arial" font-size="13px" font-style="normal" font-weight="bold" text-decoration="undefined" x="740.154052734375" y="485.5" text-anchor="middle" dominant-baseline="central" transform="matrix(1 0 0 1 -166 -102)">MarketOrder</text></g></g><g><rect fill="#C0C0C0" stroke="none" x="607" y="247" width="72.130859375" height="45" transform="matrix(1 0 0 1 -166 -102)" fill-opacity="0.2"/></g><g><rect fill="#ffffff" stroke="none" x="600" y="240" width="72.130859375" height="45" transform="matrix(1 0 0 1 -166 -102)"/></g><g><path fill="none" stroke="#000000" paint-order="fill stroke markers" d=" M 434 138 L 506.130859375 138 L 506.130859375 183 L 434 183 L 434 138 Z Z" stroke-miterlimit="10" stroke-dasharray=""/></g><g><path fill="none" stroke="#000000" paint-order="fill stroke markers" d=" M 434 163 L 506.130859375 163" stroke-miterlimit="10" stroke-dasharray=""/></g><g><path fill="none" stroke="#000000" paint-order="fill stroke markers" d=" M 434 173 L 506.130859375 173" stroke-miterlimit="10" stroke-dasharray=""/></g><g><g><path fill="none" stroke="none"/><text fill="#000000" stroke="none" font-family="Arial" font-size="13px" font-style="normal" font-weight="bold" text-decoration="undefined" x="636.5654296875" y="253.5" text-anchor="middle" dominant-baseline="central" transform="matrix(1 0 0 1 -166 -102)">OrderItem</text></g></g><g><rect fill="#C0C0C0" stroke="none" x="1079" y="319" width="59.11181640625" height="45" transform="matrix(1 0 0 1 -166 -102)" fill-opacity="0.2"/></g><g><rect fill="#ffffff" stroke="none" x="1072" y="312" width="59.11181640625" height="45" transform="matrix(1 0 0 1 -166 -102)"/></g><g><path fill="none" stroke="#000000" paint-order="fill stroke markers" d=" M 906 210 L 965.11181640625 210 L 965.11181640625 255 L 906 255 L 906 210 Z Z" stroke-miterlimit="10" stroke-dasharray=""/></g><g><path fill="none" stroke="#000000" paint-order="fill stroke markers" d=" M 906 235 L 965.11181640625 235" stroke-miterlimit="10" stroke-dasharray=""/></g><g><path fill="none" stroke="#000000" paint-order="fill stroke markers" d=" M 906 245 L 965.11181640625 245" stroke-miterlimit="10" stroke-dasharray=""/></g><g><g><path fill="none" stroke="none"/><text fill="#000000" stroke="none" font-family="Arial" font-size="13px" font-style="normal" font-weight="bold" text-decoration="undefined" x="1102.055908203125" y="325.5" text-anchor="middle" dominant-baseline="central" transform="matrix(1 0 0 1 -166 -102)">Product</text></g></g><g><rect fill="#C0C0C0" stroke="none" x="343" y="631" width="64.18994140625" height="45" transform="matrix(1 0 0 1 -166 -102)" fill-opacity="0.2"/></g><g><rect fill="#ffffff" stroke="none" x="336" y="624" width="64.18994140625" height="45" transform="matrix(1 0 0 1 -166 -102)"/></g><g><path fill="none" stroke="#000000" paint-order="fill stroke markers" d=" M 170 522 L 234.18994140625 522 L 234.18994140625 567 L 170 567 L 170 522 Z Z" stroke-miterlimit="10" stroke-dasharray=""/></g><g><path fill="none" stroke="#000000" paint-order="fill stroke markers" d=" M 170 547 L 234.18994140625 547" stroke-miterlimit="10" stroke-dasharray=""/></g><g><path fill="none" stroke="#000000" paint-order="fill stroke markers" d=" M 170 557 L 234.18994140625 557" stroke-miterlimit="10" stroke-dasharray=""/></g><g><g><path fill="none" stroke="none"/><text fill="#000000" stroke="none" font-family="Arial" font-size="13px" font-style="normal" font-weight="bold" text-decoration="undefined" x="368.594970703125" y="637.5" text-anchor="middle" dominant-baseline="central" transform="matrix(1 0 0 1 -166 -102)">Payment</text></g></g><g><rect fill="#C0C0C0" stroke="none" x="575" y="655" width="84.42626953125" height="45" transform="matrix(1 0 0 1 -166 -102)" fill-opacity="0.2"/></g><g><rect fill="#ffffff" stroke="none" x="568" y="648" width="84.42626953125" height="45" transform="matrix(1 0 0 1 -166 -102)"/></g><g><path fill="none" stroke="#000000" paint-order="fill stroke markers" d=" M 402 546 L 486.42626953125 546 L 486.42626953125 591 L 402 591 L 402 546 Z Z" stroke-miterlimit="10" stroke-dasharray=""/></g><g><path fill="none" stroke="#000000" paint-order="fill stroke markers" d=" M 402 571 L 486.42626953125 571" stroke-miterlimit="10" stroke-dasharray=""/></g><g><path fill="none" stroke="#000000" paint-order="fill stroke markers" d=" M 402 581 L 486.42626953125 581" stroke-miterlimit="10" stroke-dasharray=""/></g><g><g><path fill="none" stroke="none"/><text fill="#000000" stroke="none" font-family="Arial" font-size="13px" font-style="normal" font-weight="bold" text-decoration="undefined" x="610.713134765625" y="661.5" text-anchor="middle" dominant-baseline="central" transform="matrix(1 0 0 1 -166 -102)">DeliveryTrip</text></g></g><g><rect fill="#C0C0C0" stroke="none" x="743" y="615" width="69.236328125" height="45" transform="matrix(1 0 0 1 -166 -102)" fill-opacity="0.2"/></g><g><rect fill="#ffffff" stroke="none" x="736" y="608" width="69.236328125" height="45" transform="matrix(1 0 0 1 -166 -102)"/></g><g><path fill="none" stroke="#000000" paint-order="fill stroke markers" d=" M 570 506 L 639.236328125 506 L 639.236328125 551 L 570 551 L 570 506 Z Z" stroke-miterlimit="10" stroke-dasharray=""/></g><g><path fill="none" stroke="#000000" paint-order="fill stroke markers" d=" M 570 531 L 639.236328125 531" stroke-miterlimit="10" stroke-dasharray=""/></g><g><path fill="none" stroke="#000000" paint-order="fill stroke markers" d=" M 570 541 L 639.236328125 541" stroke-miterlimit="10" stroke-dasharray=""/></g><g><g><path fill="none" stroke="none"/><text fill="#000000" stroke="none" font-family="Arial" font-size="13px" font-style="normal" font-weight="bold" text-decoration="undefined" x="771.1181640625" y="621.5" text-anchor="middle" dominant-baseline="central" transform="matrix(1 0 0 1 -166 -102)">TripOrder</text></g></g><g><rect fill="#C0C0C0" stroke="none" x="1007" y="551" width="94.53173828125" height="45" transform="matrix(1 0 0 1 -166 -102)" fill-opacity="0.2"/></g><g><rect fill="#ffffff" stroke="none" x="1000" y="544" width="94.53173828125" height="45" transform="matrix(1 0 0 1 -166 -102)"/></g><g><path fill="none" stroke="#000000" paint-order="fill stroke markers" d=" M 834 442 L 928.53173828125 442 L 928.53173828125 487 L 834 487 L 834 442 Z Z" stroke-miterlimit="10" stroke-dasharray=""/></g><g><path fill="none" stroke="#000000" paint-order="fill stroke markers" d=" M 834 467 L 928.53173828125 467" stroke-miterlimit="10" stroke-dasharray=""/></g><g><path fill="none" stroke="#000000" paint-order="fill stroke markers" d=" M 834 477 L 928.53173828125 477" stroke-miterlimit="10" stroke-dasharray=""/></g><g><g><path fill="none" stroke="none"/><text fill="#000000" stroke="none" font-family="Arial" font-size="13px" font-style="normal" font-weight="bold" text-decoration="undefined" x="1047.765869140625" y="557.5" text-anchor="middle" dominant-baseline="central" transform="matrix(1 0 0 1 -166 -102)">DeliveryProof</text></g></g><g><rect fill="#C0C0C0" stroke="none" x="271" y="247" width="83.658203125" height="45" transform="matrix(1 0 0 1 -166 -102)" fill-opacity="0.2"/></g><g><rect fill="#ffffff" stroke="none" x="264" y="240" width="83.658203125" height="45" transform="matrix(1 0 0 1 -166 -102)"/></g><g><path fill="none" stroke="#000000" paint-order="fill stroke markers" d=" M 98 138 L 181.658203125 138 L 181.658203125 183 L 98 183 L 98 138 Z Z" stroke-miterlimit="10" stroke-dasharray=""/></g><g><path fill="none" stroke="#000000" paint-order="fill stroke markers" d=" M 98 163 L 181.658203125 163" stroke-miterlimit="10" stroke-dasharray=""/></g><g><path fill="none" stroke="#000000" paint-order="fill stroke markers" d=" M 98 173 L 181.658203125 173" stroke-miterlimit="10" stroke-dasharray=""/></g><g><g><path fill="none" stroke="none"/><text fill="#000000" stroke="none" font-family="Arial" font-size="13px" font-style="normal" font-weight="bold" text-decoration="undefined" x="306.3291015625" y="253.5" text-anchor="middle" dominant-baseline="central" transform="matrix(1 0 0 1 -166 -102)">LoadingList</text></g></g><g><rect fill="#C0C0C0" stroke="none" x="423" y="119" width="77.90087890625" height="45" transform="matrix(1 0 0 1 -166 -102)" fill-opacity="0.2"/></g><g><rect fill="#ffffff" stroke="none" x="416" y="112" width="77.90087890625" height="45" transform="matrix(1 0 0 1 -166 -102)"/></g><g><path fill="none" stroke="#000000" paint-order="fill stroke markers" d=" M 250 10 L 327.90087890625 10 L 327.90087890625 55 L 250 55 L 250 10 Z Z" stroke-miterlimit="10" stroke-dasharray=""/></g><g><path fill="none" stroke="#000000" paint-order="fill stroke markers" d=" M 250 35 L 327.90087890625 35" stroke-miterlimit="10" stroke-dasharray=""/></g><g><path fill="none" stroke="#000000" paint-order="fill stroke markers" d=" M 250 45 L 327.90087890625 45" stroke-miterlimit="10" stroke-dasharray=""/></g><g><g><path fill="none" stroke="none"/><text fill="#000000" stroke="none" font-family="Arial" font-size="13px" font-style="normal" font-weight="bold" text-decoration="undefined" x="455.450439453125" y="125.5" text-anchor="middle" dominant-baseline="central" transform="matrix(1 0 0 1 -166 -102)">Depository</text></g></g><g><rect fill="#C0C0C0" stroke="none" x="183" y="607" width="51.919921875" height="45" transform="matrix(1 0 0 1 -166 -102)" fill-opacity="0.2"/></g><g><rect fill="#ffffff" stroke="none" x="176" y="600" width="51.919921875" height="45" transform="matrix(1 0 0 1 -166 -102)"/></g><g><path fill="none" stroke="#000000" paint-order="fill stroke markers" d=" M 10 498 L 61.919921875 498 L 61.919921875 543 L 10 543 L 10 498 Z Z" stroke-miterlimit="10" stroke-dasharray=""/></g><g><path fill="none" stroke="#000000" paint-order="fill stroke markers" d=" M 10 523 L 61.919921875 523" stroke-miterlimit="10" stroke-dasharray=""/></g><g><path fill="none" stroke="#000000" paint-order="fill stroke markers" d=" M 10 533 L 61.919921875 533" stroke-miterlimit="10" stroke-dasharray=""/></g><g><g><path fill="none" stroke="none"/><text fill="#000000" stroke="none" font-family="Arial" font-size="13px" font-style="normal" font-weight="bold" text-decoration="undefined" x="202.4599609375" y="613.5" text-anchor="middle" dominant-baseline="central" transform="matrix(1 0 0 1 -166 -102)">Driver</text></g></g><g><rect fill="#C0C0C0" stroke="none" x="871" y="759" width="54.80810546875" height="45" transform="matrix(1 0 0 1 -166 -102)" fill-opacity="0.2"/></g><g><rect fill="#ffffff" stroke="none" x="864" y="752" width="54.80810546875" height="45" transform="matrix(1 0 0 1 -166 -102)"/></g><g><path fill="none" stroke="#000000" paint-order="fill stroke markers" d=" M 698 650 L 752.80810546875 650 L 752.80810546875 695 L 698 695 L 698 650 Z Z" stroke-miterlimit="10" stroke-dasharray=""/></g><g><path fill="none" stroke="#000000" paint-order="fill stroke markers" d=" M 698 675 L 752.80810546875 675" stroke-miterlimit="10" stroke-dasharray=""/></g><g><path fill="none" stroke="#000000" paint-order="fill stroke markers" d=" M 698 685 L 752.80810546875 685" stroke-miterlimit="10" stroke-dasharray=""/></g><g><g><path fill="none" stroke="none"/><text fill="#000000" stroke="none" font-family="Arial" font-size="13px" font-style="normal" font-weight="bold" text-decoration="undefined" x="891.904052734375" y="765.5" text-anchor="middle" dominant-baseline="central" transform="matrix(1 0 0 1 -166 -102)">Vehicle</text></g></g><g><path fill="none" stroke="#000000" paint-order="fill stroke markers" d=" M 311 392 L 529 392" stroke-miterlimit="10" stroke-dasharray=""/></g><g><path fill="#000000" stroke="none" paint-order="stroke fill markers" d=" M 425 372.5 L 435 377.5 L 425 382.5"/></g><g><rect fill="#ffffff" stroke="none" x="495" y="500" width="7.22998046875" height="13" transform="matrix(1 0 0 1 -166 -102)"/></g><g><g><path fill="none" stroke="none"/><text fill="#000000" stroke="none" font-family="Arial" font-size="13px" font-style="normal" font-weight="normal" text-decoration="undefined" x="498.614990234375" y="506.5" text-anchor="middle" dominant-baseline="central" transform="matrix(1 0 0 1 -166 -102)">1</text></g></g><g><rect fill="#ffffff" stroke="none" x="664" y="500" width="19.5126953125" height="13" transform="matrix(1 0 0 1 -166 -102)"/></g><g><g><path fill="none" stroke="none"/><text fill="#000000" stroke="none" font-family="Arial" font-size="13px" font-style="normal" font-weight="normal" text-decoration="undefined" x="673.75634765625" y="506.5" text-anchor="middle" dominant-baseline="central" transform="matrix(1 0 0 1 -166 -102)">0..*</text></g></g></g></svg>